PathFileType	4	(X/Y/Z)	/Users/itak/Documents/Research/Walk-IL/dataset/trc/00249_00009.trc
DataRate	CameraRate	NumFrames	NumMarkers	Units	OrigDataRate	OrigDataStartFrame	OrigNumFrames
100.000000	100.000000	4	55	mm	100.000000	61	493
Frame#	Time	RPSI			LPSI			L3			STRN			T10			C7			CLAV			RBAK			LBAK			LSHO			LUPA			LAEL			LAOL			LWTS			LWPS			LFRA			LIFD			LHPS			LHTS			RSHO			RUPA			RAEL			RAOL			RWTS			RWPS			RFRA			RIFD			RHTS			RHPS			RBHD			LFHD			RFHD			LBHD			LHIP			RHIP			RASI			LASI			LKNE			LTHI			LANK			LTIP			LTOE			LMT1			LMT5			LHEE			RKNE			RTHI			RANK			RTIP			RTOE			RMT1			RMT5			RHEE			*53			*54			
		X1	Y1	Z1	X2	Y2	Z2	X3	Y3	Z3	X4	Y4	Z4	X5	Y5	Z5	X6	Y6	Z6	X7	Y7	Z7	X8	Y8	Z8	X9	Y9	Z9	X10	Y10	Z10	X11	Y11	Z11	X12	Y12	Z12	X13	Y13	Z13	X14	Y14	Z14	X15	Y15	Z15	X16	Y16	Z16	X17	Y17	Z17	X18	Y18	Z18	X19	Y19	Z19	X20	Y20	Z20	X21	Y21	Z21	X22	Y22	Z22	X23	Y23	Z23	X24	Y24	Z24	X25	Y25	Z25	X26	Y26	Z26	X27	Y27	Z27	X28	Y28	Z28	X29	Y29	Z29	X30	Y30	Z30	X31	Y31	Z31	X32	Y32	Z32	X33	Y33	Z33	X34	Y34	Z34	X35	Y35	Z35	X36	Y36	Z36	X37	Y37	Z37	X38	Y38	Z38	X39	Y39	Z39	X40	Y40	Z40	X41	Y41	Z41	X42	Y42	Z42	X43	Y43	Z43	X44	Y44	Z44	X45	Y45	Z45	X46	Y46	Z46	X47	Y47	Z47	X48	Y48	Z48	X49	Y49	Z49	X50	Y50	Z50	X51	Y51	Z51	X52	Y52	Z52	X53	Y53	Z53	X54	Y54	Z54	X55	Y55	Z55	

62	0.61	-1554.438110351562	1064.620239257812	-385.5484313964844	-1540.010009765625	1067.566528320312	-504.9107971191406	-1546.30712890625	1140.180541992188	-465.4712219238281	-1298.708251953125	1330.2314453125	-444.625	-1551.841674804688	1262.829833984375	-463.4103088378906	-1496.54150390625	1525.445922851562	-463.4051513671875	-1326.320678710938	1447.860717773438	-445.6768798828125	-1571.597412109375	1386.107299804688	-392.5784606933594	-1506.312622070312	1487.274780273438	-575.8712768554688	-1412.484008789062	1491.076904296875	-622.844970703125	-1425.906494140625	1371.949829101562	-704.5462036132812	-1386.806762695312	1161.8115234375	-724.9088745117188	-1466.361450195312	1139.962890625	-695.3042602539062	-1291.33642578125	938.89794921875	-634.5958862304688	-1291.159423828125	919.448974609375	-717.513427734375	-1350.591552734375	1057.070434570312	-727.9479370117188	-1265.763916015625	747.01171875	-633.5205078125	-1266.845336914062	833.3924560546875	-706.7586059570312	-1242.064086914062	841.907958984375	-641.5977783203125	-1451.796142578125	1493.887329101562	-287.6252136230469	-1475.93701171875	1431.638549804688	-219.4791259765625	-1503.99951171875	1149.696411132812	-181.1148223876953	-1525.833129882812	1143.981689453125	-273.5516662597656	-1363.63623046875	934.7562255859375	-210.3049163818359	-1421.591674804688	920.2374877929688	-152.2063140869141	-1478.251098632812	1081.101318359375	-165.5256500244141	-1347.547119140625	742.0389404296875	-216.3177947998047	-1323.234252929688	814.6615600585938	-191.2934875488281	-1381.284301757812	814.1936645507812	-145.9000396728516	-1473.981689453125	1677.705444335938	-421.1892395019531	-1258.450927734375	1733.948974609375	-468.0714111328125	-1282.472045898438	1730.489379882812	-370.8287963867188	-1400.7822265625	1690.357299804688	-540.5065307617188	-1429.958740234375	996.2327270507812	-633.9856567382812	-1471.598022460938	1018.947631835938	-268.8938293457031	-1368.83251953125	1057.53076171875	-297.5150756835938	-1332.072509765625	1033.224487304688	-575.5319213867188	-1420.472412109375	507.4719848632812	-586.1643676757812	-1412.580932617188	650.9328002929688	-618.1478271484375	-1495.581909179688	37.60599136352539	-571.9588012695312	-1465.404663085938	286.2213134765625	-592.7925415039062	-1284.740234375	47.17657470703125	-502.2664794921875	-1355.707275390625	42.72358322143555	-463.5055236816406	-1367.0869140625	39.21897506713867	-580.0509643554688	-1560.119140625	43.99023818969727	-523.7667236328125	-1449.493408203125	521.847900390625	-299.6511535644531	-1427.58544921875	790.5641479492188	-252.9790191650391	-1517.420288085938	41.60676956176758	-332.9138793945312	-1443.7509765625	405.8803405761719	-315.7449645996094	-1301.332153320312	47.68501663208008	-340.3096923828125	-1350.323852539062	42.79888534545898	-392.7461242675781	-1412.644287109375	43.21942520141602	-289.9986267089844	-1569.867553710938	37.58429336547852	-399.9869384765625	nan	nan	nan	nan	nan	nan	
63	0.62	-1554.441162109375	1064.737060546875	-384.8496704101562	-1540.069213867188	1067.712280273438	-504.2078857421875	-1546.243530273438	1140.355712890625	-464.7814636230469	-1298.38720703125	1330.048706054688	-444.1278381347656	-1551.532470703125	1263.03173828125	-462.7294006347656	-1495.920776367188	1525.550659179688	-462.6726989746094	-1325.778442382812	1447.755004882812	-445.0617065429688	-1571.105346679688	1386.289794921875	-391.8645935058594	-1505.80712890625	1487.446411132812	-575.1892700195312	-1411.9677734375	1491.171142578125	-622.153564453125	-1425.23095703125	1372.06494140625	-703.8298950195312	-1385.528198242188	1161.979736328125	-724.0379638671875	-1465.133178710938	1139.941162109375	-694.7318725585938	-1289.641357421875	939.5350952148438	-633.0369873046875	-1289.10107421875	919.962158203125	-715.9219970703125	-1348.964233398438	1057.354125976562	-726.81640625	-1263.070434570312	747.9191284179688	-631.5299682617188	-1264.3662109375	834.0552978515625	-704.9144897460938	-1239.79345703125	842.9385986328125	-639.6874389648438	-1451.100708007812	1493.835205078125	-286.9078674316406	-1475.26171875	1431.563842773438	-218.8115997314453	-1503.788818359375	1149.647827148438	-180.654296875	-1525.597290039062	1144.049926757812	-273.0496520996094	-1363.687377929688	934.6819458007812	-209.8415679931641	-1421.686157226562	920.0436401367188	-151.9273681640625	-1478.153564453125	1081.009765625	-165.13037109375	-1348.0263671875	741.7625732421875	-216.1319885253906	-1323.572021484375	814.3388671875	-191.1377105712891	-1381.606201171875	813.9260864257812	-145.7375793457031	-1473.141845703125	1677.766845703125	-420.5050354003906	-1257.46728515625	1733.68505859375	-467.2507934570312	-1281.548706054688	1730.248046875	-370.056396484375	-1399.807739257812	1690.367309570312	-539.8189086914062	-1430.256469726562	996.3445434570312	-633.4532470703125	-1471.54736328125	1018.974731445312	-268.2741394042969	-1368.758178710938	1057.471801757812	-297.0088195800781	-1332.266235351562	1033.2236328125	-575.113037109375	-1420.24462890625	507.512939453125	-585.8262329101562	-1412.603759765625	651.0438842773438	-617.76708984375	-1495.58642578125	37.59060287475586	-571.9841918945312	-1465.162353515625	286.2487182617188	-592.5634155273438	-1284.80224609375	47.29316329956055	-502.2961730957031	-1355.7421875	42.73662567138672	-463.5354919433594	-1367.032348632812	39.16885757446289	-580.1023559570312	-1560.139404296875	43.98469543457031	-523.794921875	-1448.87646484375	521.9501953125	-299.2189025878906	-1427.515502929688	790.4428100585938	-252.2682342529297	-1517.44970703125	41.59461212158203	-332.8959045410156	-1443.000854492188	405.7347106933594	-315.4715576171875	-1301.41357421875	47.73718643188477	-340.3449401855469	-1350.35546875	42.80263137817383	-392.7730712890625	-1412.6455078125	43.26335525512695	-290.0374450683594	-1569.90673828125	37.51070022583008	-399.9443664550781	nan	nan	nan	nan	nan	nan	
64	0.63	-1554.465942382812	1064.84375	-384.1346740722656	-1540.135498046875	1067.845336914062	-503.48486328125	-1546.163208007812	1140.53857421875	-464.0578918457031	-1298.086059570312	1329.843994140625	-443.5885620117188	-1551.21337890625	1263.246215820312	-462.0144653320312	-1495.248657226562	1525.660278320312	-461.899169921875	-1325.198120117188	1447.64697265625	-444.4068908691406	-1570.576293945312	1386.488891601562	-391.1070861816406	-1505.266967773438	1487.63134765625	-574.4595336914062	-1411.405395507812	1491.2685546875	-621.4202270507812	-1424.537841796875	1372.189086914062	-703.0795288085938	-1384.297241210938	1162.154174804688	-723.1524658203125	-1463.947631835938	1139.93701171875	-694.1292724609375	-1287.99658203125	940.1775512695312	-631.464599609375	-1287.130126953125	920.4718627929688	-714.3172607421875	-1347.399658203125	1057.634399414062	-725.6685791015625	-1260.498168945312	748.806884765625	-629.5062866210938	-1261.954833984375	834.7094116210938	-703.0458374023438	-1237.585693359375	843.9739990234375	-637.7623291015625	-1450.357299804688	1493.781127929688	-286.1473083496094	-1474.5400390625	1431.488647460938	-218.103515625	-1503.535278320312	1149.605346679688	-180.1464691162109	-1525.341064453125	1144.123413085938	-272.5126037597656	-1363.672607421875	934.5809326171875	-209.4252319335938	-1421.7841796875	919.8465576171875	-151.6273651123047	-1478.052001953125	1080.916870117188	-164.7104187011719	-1348.482666015625	741.4871826171875	-215.9463806152344	-1323.932739257812	813.9932250976562	-190.9724884033203	-1381.920166015625	813.6648559570312	-145.5708770751953	-1472.250610351562	1677.847534179688	-419.7869262695312	-1256.420288085938	1733.386962890625	-466.4133911132812	-1280.520751953125	1729.976806640625	-369.27197265625	-1398.798706054688	1690.36962890625	-539.0775756835938	-1430.55517578125	996.4527587890625	-632.8938598632812	-1471.51220703125	1018.9912109375	-267.6298828125	-1368.69140625	1057.401733398438	-296.4583129882812	-1332.470703125	1033.22705078125	-574.6414794921875	-1420.033081054688	507.5640563964844	-585.473876953125	-1412.659790039062	651.1559448242188	-617.3729248046875	-1495.593139648438	37.57743072509766	-572.0066528320312	-1464.934204101562	286.2860107421875	-592.3264770507812	-1284.867919921875	47.41153717041016	-502.3247680664062	-1355.769653320312	42.75138854980469	-463.564697265625	-1366.973022460938	39.10303115844727	-580.1543579101562	-1560.160766601562	43.98041534423828	-523.81884765625	-1448.175170898438	522.0711059570312	-298.75634765625	-1427.379760742188	790.31201171875	-251.5551452636719	-1517.453002929688	41.59001922607422	-332.8650817871094	-1442.169067382812	405.5603637695312	-315.20361328125	-1301.497802734375	47.78932189941406	-340.3808898925781	-1350.387451171875	42.80630874633789	-392.7942504882812	-1412.6494140625	43.30228042602539	-290.0707397460938	-1569.943969726562	37.42889785766602	-399.8913879394531	nan	nan	nan	nan	nan	nan	
65	0.64	-1554.49560546875	1064.936645507812	-383.3964538574219	-1540.208129882812	1067.96484375	-502.7437133789062	-1546.066650390625	1140.72802734375	-463.3014526367188	-1297.8076171875	1329.6162109375	-443.0021667480469	-1550.881103515625	1263.469848632812	-461.2630310058594	-1494.523315429688	1525.772338867188	-461.0833129882812	-1324.580078125	1447.534423828125	-443.712158203125	-1570.011474609375	1386.703125	-390.3059997558594	-1504.684204101562	1487.824462890625	-573.6788330078125	-1410.796997070312	1491.365234375	-620.6441650390625	-1423.82861328125	1372.3173828125	-702.2943115234375	-1383.122192382812	1162.331420898438	-722.2534790039062	-1462.807983398438	1139.947021484375	-693.496337890625	-1286.412109375	940.8177490234375	-629.8854370117188	-1285.250122070312	920.970458984375	-712.7042846679688	-1345.903442382812	1057.904907226562	-724.507080078125	-1258.072021484375	749.6763916015625	-627.4483642578125	-1259.63525390625	835.3486328125	-701.157470703125	-1235.480590820312	844.9740600585938	-635.82958984375	-1449.56396484375	1493.727416992188	-285.3423461914062	-1473.772216796875	1431.416870117188	-217.3507537841797	-1503.2421875	1149.571166992188	-179.588134765625	-1525.070678710938	1144.20458984375	-271.9380798339844	-1363.607055664062	934.4497680664062	-209.0631561279297	-1421.885009765625	919.6498413085938	-151.3024291992188	-1477.94189453125	1080.824829101562	-164.2589416503906	-1348.923217773438	741.2125854492188	-215.7638854980469	-1324.312744140625	813.623046875	-190.79638671875	-1382.227172851562	813.4075927734375	-145.3938598632812	-1471.306640625	1677.948120117188	-419.033935546875	-1255.322021484375	1733.052124023438	-465.5545043945312	-1279.396118164062	1729.6708984375	-368.466796875	-1397.7529296875	1690.365112304688	-538.2801513671875	-1430.83837890625	996.5576171875	-632.3018188476562	-1471.501831054688	1018.992309570312	-266.9652099609375	-1368.636352539062	1057.321411132812	-295.8687133789062	-1332.670288085938	1033.228881835938	-574.101318359375	-1419.837768554688	507.6274719238281	-585.1033935546875	-1412.734497070312	651.265869140625	-616.9607543945312	-1495.600830078125	37.56528091430664	-572.0256958007812	-1464.722778320312	286.3313598632812	-592.0808715820312	-1284.933349609375	47.52682495117188	-502.3525085449219	-1355.790405273438	42.7685432434082	-463.5903625488281	-1366.918701171875	39.03483581542969	-580.1978149414062	-1560.182739257812	43.97701263427734	-523.8392944335938	-1447.375	522.2007446289062	-298.2748718261719	-1427.189208984375	790.1675415039062	-250.8526306152344	-1517.439331054688	41.58872222900391	-332.8244323730469	-1441.256469726562	405.3574523925781	-314.9338989257812	-1301.584350585938	47.84033203125	-340.4180603027344	-1350.416870117188	42.80899047851562	-392.8099670410156	-1412.656372070312	43.33591079711914	-290.0993347167969	-1569.981201171875	37.34144973754883	-399.8297424316406	nan	nan	nan	nan	nan	nan	
